<mxfile host="app.diagrams.net" agent="Mozilla/5.0 (Windows NT 10.0; Win64; x64) AppleWebKit/537.36 (KHTML, like Gecko) Chrome/125.0.0.0 Safari/537.36" version="24.7.6">
  <diagram id="C5RBs43oDa-KdzZeNtuy" name="Page-1">
    <mxGraphModel dx="1265" dy="673" grid="1" gridSize="10" guides="1" tooltips="1" connect="1" arrows="1" fold="1" page="1" pageScale="1" pageWidth="827" pageHeight="1169" math="0" shadow="0">
      <root>
        <mxCell id="WIyWlLk6GJQsqaUBKTNV-0" />
        <mxCell id="WIyWlLk6GJQsqaUBKTNV-1" parent="WIyWlLk6GJQsqaUBKTNV-0" />
        <mxCell id="evjfqn1B4RE-ZNFFUzV3-5" style="edgeStyle=orthogonalEdgeStyle;rounded=0;orthogonalLoop=1;jettySize=auto;html=1;entryX=0;entryY=0.5;entryDx=0;entryDy=0;" edge="1" parent="WIyWlLk6GJQsqaUBKTNV-1" source="WIyWlLk6GJQsqaUBKTNV-12" target="-3tZdb9XxhylrpX0prTx-0">
          <mxGeometry relative="1" as="geometry" />
        </mxCell>
        <mxCell id="WIyWlLk6GJQsqaUBKTNV-12" value="Transform the marginals to &lt;font face=&quot;Lucida Console&quot;&gt;&lt;b&gt;PoiissonProcess&lt;br&gt;&lt;/b&gt;&lt;/font&gt;&lt;br&gt;Vectors of correlated &lt;br&gt;P default" style="rounded=1;whiteSpace=wrap;html=1;fontSize=12;glass=0;strokeWidth=1;shadow=0;fillColor=#a20025;fontColor=#ffffff;strokeColor=#6F0000;" parent="WIyWlLk6GJQsqaUBKTNV-1" vertex="1">
          <mxGeometry x="310" y="160" width="170" height="80" as="geometry" />
        </mxCell>
        <mxCell id="evjfqn1B4RE-ZNFFUzV3-4" value="" style="edgeStyle=orthogonalEdgeStyle;rounded=0;orthogonalLoop=1;jettySize=auto;html=1;entryX=0.5;entryY=0;entryDx=0;entryDy=0;" edge="1" parent="WIyWlLk6GJQsqaUBKTNV-1" source="pSMiITP0uglDrsmcwOC9-7" target="WIyWlLk6GJQsqaUBKTNV-12">
          <mxGeometry relative="1" as="geometry" />
        </mxCell>
        <mxCell id="pSMiITP0uglDrsmcwOC9-7" value="Sample m times&lt;br&gt;from&lt;br&gt;&lt;font style=&quot;font-weight: bold;&quot; face=&quot;Lucida Console&quot;&gt;GaussianCopula&lt;/font&gt;&lt;br&gt;(Nxm matrix)" style="rounded=1;whiteSpace=wrap;html=1;fillColor=#a20025;fontColor=#ffffff;strokeColor=#6F0000;" parent="WIyWlLk6GJQsqaUBKTNV-1" vertex="1">
          <mxGeometry x="310" y="45" width="168.75" height="80" as="geometry" />
        </mxCell>
        <mxCell id="pSMiITP0uglDrsmcwOC9-10" value="Determine the nth aaset&lt;br&gt;survival probabiity and&lt;br&gt;construct the corresponding&lt;br&gt;&lt;font face=&quot;Lucida Console&quot;&gt;&lt;b&gt;CreditCurve&lt;/b&gt;&lt;/font&gt;" style="ellipse;whiteSpace=wrap;html=1;fillColor=#0050ef;fontColor=#ffffff;strokeColor=#001DBC;" parent="WIyWlLk6GJQsqaUBKTNV-1" vertex="1">
          <mxGeometry x="310" y="510" width="246.75" height="100" as="geometry" />
        </mxCell>
        <mxCell id="evjfqn1B4RE-ZNFFUzV3-3" value="" style="edgeStyle=orthogonalEdgeStyle;rounded=0;orthogonalLoop=1;jettySize=auto;html=1;" edge="1" parent="WIyWlLk6GJQsqaUBKTNV-1" source="pSMiITP0uglDrsmcwOC9-13" target="pSMiITP0uglDrsmcwOC9-7">
          <mxGeometry relative="1" as="geometry" />
        </mxCell>
        <mxCell id="pSMiITP0uglDrsmcwOC9-13" value="N-dim Gaussian Copula&lt;br&gt;with given correlation" style="shape=parallelogram;perimeter=parallelogramPerimeter;whiteSpace=wrap;html=1;fixedSize=1;fillColor=#008a00;fontColor=#ffffff;strokeColor=#005700;" parent="WIyWlLk6GJQsqaUBKTNV-1" vertex="1">
          <mxGeometry x="509" y="50" width="175" height="70" as="geometry" />
        </mxCell>
        <mxCell id="evjfqn1B4RE-ZNFFUzV3-7" style="edgeStyle=orthogonalEdgeStyle;rounded=0;orthogonalLoop=1;jettySize=auto;html=1;entryX=0.5;entryY=0;entryDx=0;entryDy=0;" edge="1" parent="WIyWlLk6GJQsqaUBKTNV-1" source="-3tZdb9XxhylrpX0prTx-0" target="evjfqn1B4RE-ZNFFUzV3-0">
          <mxGeometry relative="1" as="geometry" />
        </mxCell>
        <mxCell id="-3tZdb9XxhylrpX0prTx-0" value="Apply .&lt;font face=&quot;Lucida Console&quot;&gt;&lt;b&gt;PoissonProcess.&lt;/b&gt;&lt;/font&gt;&lt;b&gt;&lt;font face=&quot;Lucida Console&quot;&gt;ppf&amp;nbsp;&lt;/font&gt;&lt;/b&gt;&lt;br&gt;to get vectors of &lt;br&gt;default times" style="rounded=1;whiteSpace=wrap;html=1;fontSize=12;glass=0;strokeWidth=1;shadow=0;fillColor=#a20025;fontColor=#ffffff;strokeColor=#6F0000;" parent="WIyWlLk6GJQsqaUBKTNV-1" vertex="1">
          <mxGeometry x="560" y="160" width="170" height="80" as="geometry" />
        </mxCell>
        <mxCell id="evjfqn1B4RE-ZNFFUzV3-9" value="" style="edgeStyle=orthogonalEdgeStyle;rounded=0;orthogonalLoop=1;jettySize=auto;html=1;" edge="1" parent="WIyWlLk6GJQsqaUBKTNV-1" source="evjfqn1B4RE-ZNFFUzV3-0" target="evjfqn1B4RE-ZNFFUzV3-2">
          <mxGeometry relative="1" as="geometry" />
        </mxCell>
        <mxCell id="evjfqn1B4RE-ZNFFUzV3-0" value="For each d_i and for each simulation check the fraction&lt;br&gt;of times there are n defaults" style="rounded=1;whiteSpace=wrap;html=1;fontSize=12;glass=0;strokeWidth=1;shadow=0;fillColor=#a20025;fontColor=#ffffff;strokeColor=#6F0000;" vertex="1" parent="WIyWlLk6GJQsqaUBKTNV-1">
          <mxGeometry x="560" y="281" width="170" height="80" as="geometry" />
        </mxCell>
        <mxCell id="evjfqn1B4RE-ZNFFUzV3-8" style="edgeStyle=orthogonalEdgeStyle;rounded=0;orthogonalLoop=1;jettySize=auto;html=1;entryX=0;entryY=0.5;entryDx=0;entryDy=0;" edge="1" parent="WIyWlLk6GJQsqaUBKTNV-1" source="evjfqn1B4RE-ZNFFUzV3-1" target="evjfqn1B4RE-ZNFFUzV3-0">
          <mxGeometry relative="1" as="geometry" />
        </mxCell>
        <mxCell id="evjfqn1B4RE-ZNFFUzV3-1" value="Vector of pillar rimes&lt;br&gt;{d_i}" style="shape=parallelogram;perimeter=parallelogramPerimeter;whiteSpace=wrap;html=1;fixedSize=1;fillColor=#008a00;fontColor=#ffffff;strokeColor=#005700;" vertex="1" parent="WIyWlLk6GJQsqaUBKTNV-1">
          <mxGeometry x="351" y="286" width="175" height="70" as="geometry" />
        </mxCell>
        <mxCell id="evjfqn1B4RE-ZNFFUzV3-10" style="edgeStyle=orthogonalEdgeStyle;rounded=0;orthogonalLoop=1;jettySize=auto;html=1;entryX=1;entryY=0.5;entryDx=0;entryDy=0;exitX=0.5;exitY=1;exitDx=0;exitDy=0;" edge="1" parent="WIyWlLk6GJQsqaUBKTNV-1" source="evjfqn1B4RE-ZNFFUzV3-2" target="pSMiITP0uglDrsmcwOC9-10">
          <mxGeometry relative="1" as="geometry" />
        </mxCell>
        <mxCell id="evjfqn1B4RE-ZNFFUzV3-2" value="Determine the nth aaset&lt;br&gt;survival probabiity and&lt;br&gt;construct the corresponding&lt;br&gt;&lt;font face=&quot;Lucida Console&quot;&gt;&lt;b&gt;CreditCurve&lt;/b&gt;&lt;/font&gt;" style="rounded=1;whiteSpace=wrap;html=1;fontSize=12;glass=0;strokeWidth=1;shadow=0;fillColor=#a20025;fontColor=#ffffff;strokeColor=#6F0000;" vertex="1" parent="WIyWlLk6GJQsqaUBKTNV-1">
          <mxGeometry x="560" y="430" width="170" height="80" as="geometry" />
        </mxCell>
      </root>
    </mxGraphModel>
  </diagram>
</mxfile>
